<?xml version="1.0" standalone="no"?>
<!DOCTYPE svg PUBLIC "-//W3C//DTD SVG 20010904//EN"
 "http://www.w3.org/TR/2001/REC-SVG-20010904/DTD/svg10.dtd">
<svg version="1.0" xmlns="http://www.w3.org/2000/svg"
 width="600.000000pt" height="600.000000pt" viewBox="0 0 600.000000 600.000000"
 preserveAspectRatio="xMidYMid meet">

<g transform="translate(0.000000,600.000000) scale(0.100000,-0.100000)"
fill="#000000" stroke="none">
<path d="M3991 3955 c-92 -21 -214 -63 -309 -106 l-83 -38 -42 32 c-92 70
-223 103 -312 78 -22 -6 -94 -49 -160 -97 -66 -47 -156 -103 -200 -124 -170
-81 -522 -202 -755 -260 -103 -26 -283 -110 -385 -180 -115 -80 -214 -190
-268 -298 -61 -122 -80 -210 -75 -355 l3 -115 48 -71 c126 -183 322 -309 562
-360 164 -35 452 -42 652 -16 229 30 491 101 697 190 250 107 1181 579 1196
606 19 34 40 235 40 387 0 230 -31 402 -112 618 l-30 82 -56 17 c-79 24 -324
30 -411 10z m-566 -92 c134 -46 241 -173 288 -339 l15 -51 -100 -42 c-55 -23
-106 -40 -113 -37 -8 3 -122 77 -255 166 l-242 161 108 76 c134 96 183 106
299 66z m1010 0 c4 -10 16 -42 26 -72 l19 -55 -41 -58 c-60 -86 -126 -232
-150 -334 -12 -49 -24 -140 -28 -202 l-6 -114 -60 -25 c-33 -14 -100 -40 -148
-58 l-88 -33 -9 24 c-6 13 -35 79 -66 147 -43 92 -63 150 -80 237 -13 63 -23
118 -24 122 0 3 52 31 115 62 181 87 358 210 475 330 49 51 55 54 65 29z
m-1185 -387 l195 -130 -34 -13 c-18 -8 -39 -13 -46 -11 -17 4 -485 312 -485
319 0 3 15 12 32 21 38 17 15 30 338 -186z m1284 33 c9 -52 19 -137 22 -189
l5 -95 -63 -47 c-83 -61 -187 -122 -195 -115 -12 13 18 240 43 320 28 86 77
192 122 260 l27 40 11 -40 c7 -23 19 -83 28 -134z m-1489 -72 c132 -87 242
-161 244 -163 2 -2 -13 -11 -32 -20 l-36 -17 -255 169 -255 169 37 17 c20 9
41 14 47 10 5 -3 118 -78 250 -165z m-156 -71 l264 -174 -32 -17 c-18 -9 -39
-14 -47 -11 -8 3 -132 83 -276 178 -260 172 -261 172 -232 185 16 7 36 12 44
13 8 0 134 -78 279 -174z m-164 -66 c143 -95 310 -210 372 -256 132 -100 250
-171 396 -239 58 -27 107 -52 107 -55 0 -3 -51 -35 -113 -72 -249 -150 -577
-232 -968 -245 -456 -14 -723 61 -990 280 -69 57 -71 60 -65 95 12 67 93 218
152 281 91 99 250 205 394 264 36 15 133 45 216 67 83 21 161 44 175 49 13 6
33 9 44 8 11 -2 137 -81 280 -177z m1030 42 c21 -122 32 -157 90 -282 78 -168
78 -161 8 -190 -32 -13 -88 -38 -125 -57 l-67 -33 -50 20 c-139 54 -381 194
-499 288 l-23 18 98 56 c165 95 540 275 551 264 1 -2 9 -39 17 -84z m747 -247
c2 -12 -103 -85 -117 -81 -22 6 -8 27 40 60 49 34 75 41 77 21z m-202 -119 c0
-15 -99 -66 -127 -66 -33 0 -4 33 47 56 64 27 80 29 80 10z m-223 -93 c4 -10
-77 -47 -122 -55 -29 -4 -25 21 5 36 62 33 110 41 117 19z m-222 -83 c8 -12
-113 -73 -131 -66 -25 9 -15 21 39 48 56 29 82 34 92 18z m-215 -111 c0 -10
-103 -79 -120 -79 -27 0 -4 32 47 64 53 33 73 37 73 15z m-2103 -40 c54 -42
61 -53 43 -64 -10 -6 -120 71 -120 85 0 8 11 20 18 20 3 0 29 -19 59 -41z
m1896 -84 c2 -12 -84 -54 -116 -58 -42 -4 -22 25 33 49 56 24 80 27 83 9z
m-1693 -45 c58 -29 70 -42 50 -55 -14 -9 -130 53 -130 70 0 21 13 19 80 -15z
m1470 -44 c0 -18 -128 -52 -142 -38 -13 13 3 23 72 43 58 16 70 16 70 -5z
m-1221 -49 c36 -12 45 -29 17 -35 -28 -6 -126 29 -126 45 0 17 37 13 109 -10z
m991 -8 c0 -13 -35 -25 -97 -34 -45 -6 -53 -4 -53 9 0 16 6 18 90 34 47 9 60
7 60 -9z m-772 -25 c34 -5 52 -11 52 -20 0 -10 -15 -14 -52 -14 -67 0 -98 9
-98 26 0 15 19 17 98 8z m532 -8 c0 -21 -7 -24 -80 -27 -53 -3 -65 -1 -65 11
0 11 15 17 50 21 86 10 95 10 95 -5z m-292 -2 c34 -5 52 -11 52 -20 0 -11 -18
-14 -69 -14 -67 0 -89 9 -76 30 7 12 21 12 93 4z"/>
</g>
</svg>
